<?xml version="1.0" encoding="UTF-8"?>
<svg xmlns="http://www.w3.org/2000/svg" xmlns:xlink="http://www.w3.org/1999/xlink" viewBox="0 0 24 24" width="24px" height="24px">
<g id="surface6052597">
<path style=" stroke:none;fill-rule:nonzero;fill:rgb(100%,100%,100%);fill-opacity:1;" d="M 7.5 1 C 6.628906 1 5.792969 1.175781 5.035156 1.488281 L 3.644531 2.058594 L 7.585938 6 L 6 7.585938 L 2.058594 3.644531 L 1.488281 5.035156 C 1.175781 5.792969 1 6.628906 1 7.5 C 1 11.078125 3.921875 14 7.5 14 C 8.117188 14 8.679688 13.816406 9.25 13.652344 L 18.15625 22.5625 C 18.734375 23.140625 19.699219 23.140625 20.277344 22.5625 L 22.5625 20.273438 C 23.136719 19.695312 23.136719 18.730469 22.558594 18.152344 L 13.652344 9.246094 C 13.816406 8.679688 14 8.117188 14 7.5 C 14 3.921875 11.078125 1 7.5 1 Z M 7.5 3 C 9.996094 3 12 5.003906 12 7.5 C 12 8.105469 11.878906 8.683594 11.660156 9.214844 L 11.410156 9.832031 L 20.792969 19.214844 L 19.21875 20.792969 L 9.828125 11.40625 L 9.210938 11.660156 C 8.683594 11.878906 8.109375 12 7.5 12 C 5.003906 12 3 9.996094 3 7.5 C 3 7.472656 3.011719 7.453125 3.011719 7.429688 L 6 10.414062 L 10.414062 6 L 7.425781 3.015625 C 7.453125 3.011719 7.472656 3 7.5 3 Z M 7.5 3 "/>
</g>
</svg>
